<svg width="268" height="240" fill="none" xmlns="http://www.w3.org/2000/svg" xmlns:xlink="http://www.w3.org/1999/xlink" viewBox="0 0 350 330">
    <g id="prizeFrom">
        <g id="leftCloud">
            <g style="opacity: 0;">
                <animate id="leftCloudAnimate" attributeType="CSS" attributeName="opacity" values="1; 1; 0" keyTimes="0; 0.9; 1" dur="1.5s" repeatCount="1" fill="freeze" />
                <animateTransform attributeName="transform" type="translate" from="240" to="-40" dur="1.5s" repeatCount="1" />
                <path d="M41.77,97.54H77.06a12.4,12.4,0,1,1,24.8,0h17.93" fill="none" stroke="#fff" stroke-linecap="round" stroke-miterlimit="10" stroke-width="2" />
            </g>
            <g style="opacity: 0;">
                <animate attributeType="CSS" attributeName="opacity" values="1; 1; 0" keyTimes="0; 0.9; 1" dur="1.5s" repeatCount="1" fill="freeze" />
                <animateTransform attributeName="transform" type="translate" from="230" to="-40" dur="1.6s" repeatCount="1" />
                <line x1="68.95" y1="107.8" x2="131.86" y2="107.8" fill="none" stroke="#fff" stroke-linecap="round" stroke-miterlimit="10" stroke-width="2" />
            </g>
        </g>
        <g id="rightCloud">
            <g style="opacity: 0;">
                <animate attributeType="CSS" attributeName="opacity" values="1; 1; 0" keyTimes="0; 0.9; 1" dur="1.2s" begin="1s" repeatCount="1" fill="freeze" />
                <animateTransform attributeName="transform" type="translate" from="60" to="-140" dur="1.2s" begin="1s" repeatCount="1" fill="freeze" />
                <path d="M278.75,82.91H251.39a12.4,12.4,0,1,0-24.8,0H208.65" fill="none" stroke="#fff" stroke-linecap="round" stroke-miterlimit="10" stroke-width="2" />
                <line x1="287.01" y1="82.91" x2="309.21" y2="82.91" fill="none" stroke="#fff" stroke-linecap="round" stroke-miterlimit="10" stroke-width="2" />
            </g>

            <g style="opacity: 0;">
                <animate attributeType="CSS" attributeName="opacity" values="1; 1; 0" keyTimes="0; 0.9; 1" dur="1.2s" begin="1s" repeatCount="1" fill="freeze" />
                <animateTransform attributeName="transform" type="translate" from="60" to="-140" dur="1.3s" begin="1s" repeatCount="1" />
                <line x1="258.96" y1="93.19" x2="298.74" y2="93.19" fill="none" stroke="#fff" stroke-linecap="round" stroke-miterlimit="10" stroke-width="2" />
            </g>
        </g>

        <g id="dirigible">

            <g id="wingsBack">
                <animateTransform attributeName="transform" type="translate" values="0,-2.5; 0,2.5; 0,-2.5" keyTimes="0; 0.5; 1" dur="2s" repeatCount="indefinite" fill="freeze" />
                <path d="M123.23,173.34h9.16a3.29,3.29,0,0,1,3.29,3.3v5.71a3.29,3.29,0,0,1-3.29,3.3H115.57a1.32,1.32,0,0,1-1.32-1.32v-2a9,9,0,0,1,9-9" fill="#068e4d" />
                <path d="M123.23,173.34h9.16a3.29,3.29,0,0,1,3.29,3.3v5.71a3.29,3.29,0,0,1-3.29,3.3H115.57a1.32,1.32,0,0,1-1.32-1.32v-2A9,9,0,0,1,123.23,173.34Z" fill="none" stroke="#fff" stroke-linecap="round" stroke-linejoin="round" stroke-width="2" />
                <path d="M123.23,207.39h9.16a3.29,3.29,0,0,0,3.29-3.3v-5.71a3.29,3.29,0,0,0-3.29-3.3H115.57a1.32,1.32,0,0,0-1.32,1.32v2a9,9,0,0,0,9,9" fill="#068e4d" />
                <path d="M123.23,207.39h9.16a3.29,3.29,0,0,0,3.29-3.3v-5.71a3.29,3.29,0,0,0-3.29-3.3H115.57a1.32,1.32,0,0,0-1.32,1.32v2A9,9,0,0,0,123.23,207.39Z" fill="none" stroke="#fff" stroke-linecap="round" stroke-linejoin="round" stroke-width="2" />
            </g>
            <g id="body">
                <g id="bodyCabin">
                    <animateTransform attributeName="transform" type="translate" values="-12 45; 0 0; -12 -2; 0 0; -12 45" calcMode="spline" dur="2s" repeatCount="indefinite" />
                    <animateTransform attributeName="transform" type="scale" values="1 0.8; 1 1; 1 1; 1 1; 1 0.8" calcMode="spline" dur="2s" additive="sum" repeatCount="indefinite" />
                    <animateTransform attributeName="transform" type="skewX" values="3; 0; 3; 0; 3" calcMode="spline" dur="2s" additive="sum" repeatCount="indefinite" />

                    <path d="M175.44,249.28h48.36a13.27,13.27,0,0,0,13-10.65l3.74-18.32H172.36v25.89A3.09,3.09,0,0,0,175.44,249.28Z" fill="none" stroke="#fff" stroke-linecap="round" stroke-linejoin="round" stroke-width="2" />
                    <path d="M235.79,241.69h-9.22a8.31,8.31,0,0,1-8.28-8.31V220.31" fill="none" stroke="#fff" stroke-linecap="round" stroke-miterlimit="10" stroke-width="2" />
                    <path d="M185.64,231.88h-2.05a3.45,3.45,0,0,0-3.43,3.45v2.92a3.45,3.45,0,0,0,3.43,3.45h2.05a3.45,3.45,0,0,0,3.43-3.45v-2.92A3.45,3.45,0,0,0,185.64,231.88Z" fill="none" stroke="#fff" stroke-linecap="round" stroke-linejoin="round" stroke-width="2" />
                    <path d="M204.25,231.88h-2.05a3.45,3.45,0,0,0-3.43,3.45v2.92a3.45,3.45,0,0,0,3.43,3.45h2.05a3.45,3.45,0,0,0,3.43-3.45v-2.92A3.44,3.44,0,0,0,204.25,231.88Z" fill="none" stroke="#fff" stroke-linecap="round" stroke-linejoin="round" stroke-width="2"></path>
                </g>

                <path d="M205,227.08c43.38,0,74.86-15.55,74.86-37s-31.48-37-74.86-37c-27.94,0-55.36,13.53-73.46,24.87a14.3,14.3,0,0,0,0,24.21c18.09,11.33,45.52,24.87,73.46,24.87" fill="#068e4d" />
                <path d="M205,227.08c43.38,0,74.86-15.55,74.86-37s-31.48-37-74.86-37c-27.94,0-55.36,13.53-73.46,24.87a14.3,14.3,0,0,0,0,24.21C149.63,213.54,177.06,227.08,205,227.08Z" fill="none" stroke="#fff" stroke-width="2" />
                <path d="M205 180.5C176.77 180.5 148.93 181.846 132.19 186.086C128.24 187.086 126.19 188.746 126.11 190.426C126.028 188.156 126.546 185.904 127.612 183.897C128.678 181.891 130.253 180.2 132.18 178.996C148.92 168.496 176.76 154.316 204.99 154.316C249.8 154.316 278.63 170.316 278.63 190.066C278.63 190.186 278.63 190.306 278.63 190.436C278.26 182.486 249.53 180.5 205 180.5Z" fill="#36e69a">
                    <animate id="bodyCabinAnimate" dur="2s" repeatCount="indefinite" attributeName="d" values="M205 180.5C176.77 180.5 148.93 181.846 132.19 186.086C128.24 187.086 126.19 188.746 126.11 190.426C126.028 188.156 126.546 185.904 127.612 183.897C128.678 181.891 130.253 180.2 132.18 178.996C148.92 168.496 176.76 154.316 204.99 154.316C249.8 154.316 278.63 170.316 278.63 190.066C278.63 190.186 278.63 190.306 278.63 190.436C278.26 182.486 249.53 180.5 205 180.5Z;
                        M205 176.086C176.77 176.086 148.93 181.846 132.19 186.086C128.24 187.086 126.19 188.746 126.11 190.426C126.028 188.156 126.546 185.904 127.612 183.897C128.678 181.891 130.253 180.2 132.18 178.996C148.92 168.496 176.76 154.316 204.99 154.316C249.8 154.316 278.63 170.316 278.63 190.066C278.63 190.186 278.63 190.306 278.63 190.436C278.26 182.486 249.53 176.066 205 176.066;
                        M205 180.5C176.77 180.5 148.93 181.846 132.19 186.086C128.24 187.086 126.19 188.746 126.11 190.426C126.028 188.156 126.546 185.904 127.612 183.897C128.678 181.891 130.253 180.2 132.18 178.996C148.92 168.496 176.76 154.316 204.99 154.316C249.8 154.316 278.63 170.316 278.63 190.066C278.63 190.186 278.63 190.306 278.63 190.436C278.26 182.486 249.53 180.5 205 180.5Z" />
                </path>
                <path d="M132.18,195.12c16.74,4.27,44.58,10,72.81,10,44.14,0,72.75-6.32,73.6-14.18-0.86,19.34-29.45,34.86-73.6,34.86-28.23,0-56.07-14.19-72.81-24.68a12.88,12.88,0,0,1-6-10.18c0.26,1.61,2.26,3.18,6,4.14" fill="#068e4d" />
                <path d="M132.177 186.117C148.917 181.847 176.758 171 204.988 171C249.518 171 278.248 182.547 278.598 190.497C278.598 190.667 278.598 190.837 278.598 191.007C277.748 198.867 249.138 200.5 204.988 200.5C176.758 200.5 148.927 199.417 132.188 195.177C128.398 194.177 126.397 192.647 126.188 191.047V190.537C126.317 188.847 128.337 187.177 132.287 186.167" fill="#25B774">
                    <animate dur="2s" repeatCount="indefinite" attributeName="d" values="M132.177 186.118C148.917 181.848 176.767 180.5 204.997 180.5C249.527 180.5 278.248 182.548 278.598 190.498C278.598 190.668 278.598 190.838 278.598 191.008C277.748 198.868 249.147 209.5 204.997 209.5C176.767 209.5 148.927 199.418 132.188 195.178C128.398 194.178 126.397 192.648 126.188 191.048V190.538C126.317 188.848 128.337 187.178 132.287 186.168;
                        M132.177 186.117C148.917 181.847 176.758 171 204.988 171C249.518 171 278.248 182.547 278.598 190.497C278.598 190.667 278.598 190.837 278.598 191.007C277.748 198.867 249.138 200.5 204.988 200.5C176.758 200.5 148.927 199.417 132.188 195.177C128.398 194.177 126.397 192.647 126.188 191.047V190.537C126.317 188.847 128.337 187.177 132.287 186.167;
                        M132.177 186.118C148.917 181.848 176.767 180.5 204.997 180.5C249.527 180.5 278.248 182.548 278.598 190.498C278.598 190.668 278.598 190.838 278.598 191.008C277.748 198.868 249.147 209.5 204.997 209.5C176.767 209.5 148.927 199.418 132.188 195.178C128.398 194.178 126.397 192.648 126.188 191.048V190.538C126.317 188.848 128.337 187.178 132.287 186.168;" />
                </path>

                <g id="windowRight" style="opacity: 0;">
                    <animate attributeType="CSS" attributeName="opacity" values="0; 1; 0" keyTimes="0; 0.8; 1" dur="0.6s" repeatCount="1" begin="2s" fill="freeze" />

                    <path d="M204.25 231.879H202.2C201.288 231.884 200.416 232.25 199.773 232.896C199.13 233.543 198.77 234.417 198.77 235.329V238.249C198.77 239.16 199.13 240.035 199.773 240.681C200.416 241.328 201.288 241.694 202.2 241.699H204.25C205.161 241.694 206.033 241.328 206.676 240.681C207.319 240.035 207.68 239.16 207.68 238.249V235.329C207.681 234.877 207.593 234.43 207.422 234.012C207.25 233.594 206.998 233.214 206.679 232.894C206.361 232.573 205.982 232.319 205.565 232.145C205.148 231.97 204.701 231.88 204.25 231.879V231.879Z" fill="none" stroke="#fff" stroke-linecap="round" stroke-linejoin="round" stroke-width="2">
                        <animate dur="0.5s" begin="2s" repeatCount="1" fill="freeze" attributeName="d" values="M204.25 231.879H202.2C201.288 231.884 200.416 232.25 199.773 232.896C199.13 233.543 198.77 234.417 198.77 235.329V238.249C198.77 239.16 199.13 240.035 199.773 240.681C200.416 241.328 201.288 241.694 202.2 241.699H204.25C205.161 241.694 206.033 241.328 206.676 240.681C207.319 240.035 207.68 239.16 207.68 238.249V235.329C207.681 234.877 207.593 234.43 207.422 234.012C207.25 233.594 206.998 233.214 206.679 232.894C206.361 232.573 205.982 232.319 205.565 232.145C205.148 231.97 204.701 231.88 204.25 231.879V231.879Z;
                            M250.371 183H241.628C237.741 183.028 234.02 184.958 231.279 188.369C228.538 191.781 227 196.395 227 201.206V216.614C227 221.425 228.538 226.039 231.279 229.451C234.02 232.862 237.741 234.792 241.628 234.82H250.371C254.259 234.792 257.98 232.862 260.721 229.451C263.462 226.039 265 221.425 265 216.614V201.206C265.006 198.822 264.632 196.46 263.9 194.255C263.167 192.05 262.091 190.045 260.733 188.354C259.375 186.664 257.76 185.321 255.983 184.402C254.205 183.483 252.298 183.007 250.371 183V183Z" />
                        <animate attributeName="stroke-width" values="2; 10" dur="0.5s" begin="2s" repeatCount="1" fill="freeze" />
                    </path>
                </g>

                <g id="wingsFront">
                    <animateTransform attributeName="transform" type="translate" values="0,2.5; 0,-2.5; 0,2.5" dur="2s" repeatCount="indefinite" fill="freeze" />
                    <path d="M123.23,173.34h9.16a3.29,3.29,0,0,1,3.29,3.3v5.71a3.29,3.29,0,0,1-3.29,3.3H115.57a1.32,1.32,0,0,1-1.32-1.32v-2a9,9,0,0,1,9-9" fill="#068e4d" />
                    <path d="M123.23,173.34h9.16a3.29,3.29,0,0,1,3.29,3.3v5.71a3.29,3.29,0,0,1-3.29,3.3H115.57a1.32,1.32,0,0,1-1.32-1.32v-2A9,9,0,0,1,123.23,173.34Z" fill="none" stroke="#fff" stroke-linecap="round" stroke-linejoin="round" stroke-width="2" />
                    <path d="M123.23,207.39h9.16a3.29,3.29,0,0,0,3.29-3.3v-5.71a3.29,3.29,0,0,0-3.29-3.3H115.57a1.32,1.32,0,0,0-1.32,1.32v2a9,9,0,0,0,9,9" fill="#068e4d" />
                    <path d="M123.23,207.39h9.16a3.29,3.29,0,0,0,3.29-3.3v-5.71a3.29,3.29,0,0,0-3.29-3.3H115.57a1.32,1.32,0,0,0-1.32,1.32v2A9,9,0,0,0,123.23,207.39Z" fill="none" stroke="#fff" stroke-linecap="round" stroke-linejoin="round" stroke-width="2" />
                </g>
            </g>
        </g>
        

        <g id="fumes">
            <animate attributeType="CSS" attributeName="opacity" values="1; 0" keyTimes="0; 1" dur="0.4s" repeatCount="1" begin="2.1s" fill="freeze" />
            <line id="fumesTop" x1="106.25" y1="179.49" x2="84.05" y2="179.49" fill="none" stroke="#fff" stroke-linecap="round" stroke-miterlimit="10" stroke-width="2" />
            <line id="fumesMiddle" x1="106.25" y1="190.98" x2="68.77" y2="190.98" fill="none" stroke="#fff" stroke-linecap="round" stroke-miterlimit="10" stroke-width="2" />
            <line id="fumesBottom" x1="106.25" y1="201.23" x2="84.05" y2="201.23" fill="none" stroke="#fff" stroke-linecap="round" stroke-miterlimit="10" stroke-width="2" />

            <animate href="#fumesTop" attributeName="x2" values="84.05; 89.05; 84.05" keyTimes="0; 0.1; 1" dur="0.2s" begin="0.14s" repeatCount="indefinite" />
            <animate href="#fumesMiddle" attributeName="x2" values="68.77; 73.77; 68.77" keyTimes="0; 0.1; 1" dur="0.2s" begin="0.07s" repeatCount="indefinite" />
            <animate href="#fumesBottom" attributeName="x2" values="84.05; 89.05; 84.05" keyTimes="0; 0.1; 1" dur="0.2s" repeatCount="indefinite" />
        </g>

        <animate attributeType="CSS" attributeName="opacity" values="1; 0" keyTimes="0; 1" dur="0.4s" repeatCount="1" begin="2.1s" fill="freeze" />

    </g>

    <g id="prizeTo">

        <g id="mount">
            <path d="M 289.94 327.88 L 244.88 327.88 L 212.8 296.58 C 212.459 296.292 212.027 296.134 211.58 296.134 C 211.133 296.134 210.701 296.292 210.36 296.58 L 200.16 306.81 C 199.848 307.08 199.448 307.229 199.035 307.229 C 198.622 307.229 198.222 307.08 197.91 306.81 L 178.91 286.64 C 178.477 286.274 177.927 286.072 177.36 286.072 C 176.793 286.072 176.243 286.274 175.81 286.64 L 149.39 312.28 C 149.079 312.552 148.679 312.702 148.265 312.702 C 147.851 312.702 147.451 312.552 147.14 312.28 L 144.51 309.36 C 144.195 309.071 143.782 308.911 143.355 308.911 C 142.928 308.911 142.515 309.071 142.2 309.36 L 124.63 329 L 80.78 329" fill="none" stroke="#fff" stroke-linecap="round" stroke-miterlimit="10" stroke-width="2">
                <animate attributeName="d" dur="0.3s" fill="freeze" begin="2s" to="M 289.94 328 L 246.004 328 L 218.033 328 C 217.077 328 216.12 328 215.164 328 C 214.447 328 213.73 328 213.012 328 L 202.971 328 C 202.254 328 201.537 328 200.82 328 C 200.342 328 199.863 328 199.385 328 L 181.455 328 C 179.542 328 177.63 328 175.717 328 C 174.761 328 173.805 328 172.848 328 L 149.18 328 C 148.941 328 148.702 328 148.463 328 C 147.507 328 146.551 328 145.594 328 L 140.574 328 C 140.096 328 139.617 328 139.139 328 C 138.661 328 138.183 328 137.705 328 L 126.23 328 L 81.002 328" />
            </path>
        </g>

        <g style="opacity:0;">
            <animate attributeType="CSS" attributeName="opacity" values="0; 0.5; 1" keyTimes="0; 0.1; 1" dur="0.3s" repeatCount="1" begin="2.5s" fill="freeze" />

            <path d="M282.65 228.01H265.52C260.87 227.989 256.416 226.128 253.134 222.834C249.851 219.54 248.005 215.081 248 210.43V172.58C248.005 167.929 249.851 163.47 253.134 160.176C256.416 156.882 260.87 155.021 265.52 155H282.65C287.299 155.024 291.749 156.886 295.03 160.18C298.311 163.473 300.155 167.931 300.16 172.58V210.41C300.157 215.061 298.315 219.523 295.034 222.82C291.753 226.118 287.301 227.984 282.65 228.01V228.01Z" fill="none" stroke="#fff" stroke-width="2">
                <animate attributeName="d" values="M252.579 230.01H240.428C237.129 229.994 233.97 228.618 231.642 226.181C229.313 223.744 228.004 220.445 228 217.005V189.005C228.004 185.565 229.313 182.266 231.642 179.829C233.97 177.392 237.129 176.016 240.428 176H252.579C255.877 176.018 259.034 177.395 261.361 179.832C263.688 182.268 264.996 185.566 265 189.005V216.99C264.998 220.431 263.691 223.732 261.364 226.171C259.037 228.61 255.879 229.99 252.579 230.01V230.01Z;
                        M282.65 228.01H265.52C260.87 227.989 256.416 226.128 253.134 222.834C249.851 219.54 248.005 215.081 248 210.43V172.58C248.005 167.929 249.851 163.47 253.134 160.176C256.416 156.882 260.87 155.021 265.52 155H282.65C287.299 155.024 291.749 156.886 295.03 160.18C298.311 163.473 300.155 167.931 300.16 172.58V210.41C300.157 215.061 298.315 219.523 295.034 222.82C291.753 226.118 287.301 227.984 282.65 228.01V228.01Z" dur="0.3s" begin="2.5s" repeatCount="1" fill="freeze" />
            </path>
        </g>

        <g>
            <defs>
                <clipPath id="window">
                    <path d="M282.49 227.01H265.36C260.709 226.989 256.256 225.128 252.973 221.834C249.691 218.54 247.845 214.081 247.84 209.43V171.58C247.845 166.929 249.691 162.47 252.973 159.176C256.256 155.882 260.709 154.021 265.36 154H282.49C287.139 154.024 291.589 155.886 294.87 159.18C298.15 162.473 299.995 166.931 300 171.58V209.41C299.997 214.061 298.155 218.523 294.874 221.82C291.593 225.118 287.141 226.984 282.49 227.01Z" />
                </clipPath>
            </defs>

            <g id="cloudWindow" clip-path="url(#window)">
                <animate attributeType="CSS" attributeName="opacity" values="0; 1; 1; 0" keyTimes="0; 0.2; 0.7; 1" dur="3.2s" begin="2.7s" repeatCount="indefinite" />
                <g>
                    <animateTransform attributeName="transform" type="translate" from="300 160" to="-30 160" dur="3.2s" begin="2.7s" repeatCount="indefinite" />

                    <path d="M41.77,97.54H77.06a12.4,12.4,0,1,1,24.8,0h17.93" transform="translate(-40.77 -69.46)" fill="none" stroke="#fff" stroke-linecap="round" stroke-miterlimit="10" stroke-width="2" />
                    <path d="M278.75,82.91H251.39a12.4,12.4,0,1,0-24.8,0H208.65" transform="translate(-40.77 -69.46)" fill="none" stroke="#fff" stroke-linecap="round" stroke-miterlimit="10" stroke-width="2" />
                    <line x1="246.24" y1="13.45" x2="268.43" y2="13.45" fill="none" stroke="#fff" stroke-linecap="round" stroke-miterlimit="10" stroke-width="2" />
                </g>
                <g>
                    <animateTransform attributeName="transform" type="translate" from="300 160" to="0 160" dur="3.2s" begin="2.7s" repeatCount="indefinite" />

                    <line x1="28.18" y1="38.34" x2="91.09" y2="38.34" fill="none" stroke="#fff" stroke-linecap="round" stroke-miterlimit="10" stroke-width="2" />
                    <line x1="218.19" y1="23.72" x2="257.97" y2="23.72" fill="none" stroke="#fff" stroke-linecap="round" stroke-miterlimit="10" stroke-width="2" />
                </g>
            </g>

            <g style="opacity: 0;">
                <animate attributeType="CSS" attributeName="opacity" values="0; 1" keyTimes="0; 1" dur="0.2s" begin="2.5s" repeatCount="1" fill="freeze" />
                <animateTransform attributeName="transform" type="translate" from="-60" to="0" dur="0.2s" begin="2.5s" repeatCount="1" fill="freeze" />
                <path d="M91.14,327.79a2.2,2.2,0,0,1-2-2.36l13.66-193.17c1.1-15.49-4.8-21.92-8.75-24.47a1.35,1.35,0,0,1,.53-2.45C103,104,122.18,104,120,134.19L106.43,326.67a2.2,2.2,0,0,1-2.35,2Z" fill="#fff" />
                <path d="M124.5,328.17a2.2,2.2,0,0,1-2.17-2.23l2.24-193.63c0.19-15.53-6.07-21.61-10.16-23.91a1.35,1.35,0,0,1,.39-2.47c8.36-1.9,27.49-3,27.15,27.28l-2.25,192.93a2.2,2.2,0,0,1-2.22,2.18Z" fill="#fff" />
            </g>

            <g id="chair" style="opacity: 0;">
                <animate attributeType="CSS" attributeName="opacity" values="0; 1" keyTimes="0; 1" dur="0.4s" begin="2.3s" repeatCount="1" fill="freeze" />
                <animateTransform attributeName="transform" type="translate" from="-60" to="0" dur="0.4s" begin="2.3s" repeatCount="1" fill="freeze" />
                <path d="M257.5,259.82H196.76V245.63h55.09a9.92,9.92,0,0,1,9.9,9.93,4.26,4.26,0,0,1-4.25,4.25" fill="#a67ee5" />
                <path d="M257.5,259.82H196.76V245.63h55.09a9.92,9.92,0,0,1,9.9,9.93A4.26,4.26,0,0,1,257.5,259.82Z" fill="none" stroke="#fff" stroke-miterlimit="10" stroke-width="2" />
                <polygon points="185.47 328.31 171.5 328.31 165.19 286.72 179.16 286.72 185.47 328.31" fill="#a67ee5" />
                <polygon points="185.47 328.31 171.5 328.31 165.19 286.72 179.16 286.72 185.47 328.31" fill="none" stroke="#fff" stroke-miterlimit="10" stroke-width="2" />
                <polygon points="235.03 328.31 221.06 328.31 214.76 286.72 228.72 286.72 235.03 328.31" fill="#a67ee5" />
                <polygon points="235.03 328.31 221.06 328.31 214.76 286.72 228.72 286.72 235.03 328.31" fill="none" stroke="#fff" stroke-miterlimit="10" stroke-width="2" />
                <path d="M281.33,272.45H225.44a5.59,5.59,0,0,1-5.53-4.77l-10.86-72.24a17.71,17.71,0,0,0-12.49-31.31H141.48L141.16,267l15.77,23.35,47.19,8.39a12.3,12.3,0,0,0,4.22.75h73a13.53,13.53,0,0,0,0-27.06" fill="#a67ee5" />
                <path d="M281.33,272.45H225.44a5.59,5.59,0,0,1-5.53-4.77l-10.86-72.24a17.71,17.71,0,0,0-12.49-31.31H141.48L141.16,267l15.77,23.35,47.19,8.39a12.3,12.3,0,0,0,4.22.75h73A13.53,13.53,0,0,0,281.33,272.45Z" fill="none" stroke="#fff" stroke-miterlimit="10" stroke-width="2" />
                <path d="M162.42,267.69l-10.86-72.24a17.71,17.71,0,1,0-29-13.61,18,18,0,0,0,.79,5.25L138.65,289a12.36,12.36,0,0,0,12.21,10.54h73a13.53,13.53,0,0,0,0-27.05H167.95a5.62,5.62,0,0,1-5.53-4.78" fill="#a67ee5" />
                <path d="M162.42,267.69l-10.86-72.24a17.71,17.71,0,1,0-29-13.61,18,18,0,0,0,.79,5.25L138.65,289a12.36,12.36,0,0,0,12.21,10.54h73a13.53,13.53,0,0,0,0-27.05H167.95A5.62,5.62,0,0,1,162.42,267.69Z" fill="none" stroke="#fff" stroke-miterlimit="10" stroke-width="2" />
                <path d="M206.26,259.82h-72l-2.13-14.19H200.6a9.92,9.92,0,0,1,9.9,9.93,4.26,4.26,0,0,1-4.25,4.25" fill="#a67ee5" />
                <path d="M206.26,259.82h-72l-2.13-14.19H200.6a9.92,9.92,0,0,1,9.9,9.93A4.26,4.26,0,0,1,206.26,259.82Z" fill="none" stroke="#fff" stroke-miterlimit="10" stroke-width="2" />
                <line x1="151.57" y1="195.44" x2="209.05" y2="195.44" fill="none" stroke="#fff" stroke-linecap="round" stroke-miterlimit="10" stroke-width="2" />
            </g>

            <g id="plant" style="opacity: 0; transform-origin: center bottom;">
                <animate attributeType="CSS" attributeName="opacity" values="0; 1" keyTimes="0; 1" dur="0.2s" begin="2.5s" repeatCount="1" additive="sum" fill="freeze" />
                <animateTransform attributeName="transform" type="translate" from="-60" to="0" dur="0.2s" begin="2.5s" repeatCount="1" additive="sum" fill="freeze" />
                <animateTransform attributeName="transform" type="rotate" values="0; 6; -4; 2; 0" keyTimes="0; 0.2; 0.5; 0.7; 1" dur="1.7s" begin="2.7s" repeatCount="indefinite" additive="sum" />
                <path d="M79.18,194A131,131,0,0,1,94.77,220.9a255,255,0,0,1-20.08-23.55,259,259,0,0,1-17.07-25.88A131.72,131.72,0,0,1,79.18,194" fill="#36e69a" />
                <path d="M80.94,214.39a127.19,127.19,0,0,1,22.8,20.49A242.09,242.09,0,0,1,77.9,219.17a235.86,235.86,0,0,1-23.42-18.7,119.82,119.82,0,0,1,26.46,13.92" fill="#36e69a" />
                <path d="M93.66,205.48a258.38,258.38,0,0,0,10.08,29.39,125.63,125.63,0,0,0-4.5-30.52,135.9,135.9,0,0,0-12.06-29.44,260.33,260.33,0,0,0,6.47,30.57" fill="#36e69a" />
                <path d="M107.32,213.52a250.14,250.14,0,0,0,2.06,30.67,119.93,119.93,0,0,0,3.76-30.05,131.24,131.24,0,0,0-4-31.36,238.1,238.1,0,0,0-1.87,30.74" fill="#25b774" />
                <path d="M83.08,229.56a121.93,121.93,0,0,1,26.29,14.64A225.91,225.91,0,0,1,81.21,235a228.11,228.11,0,0,1-26.37-12.69,113.61,113.61,0,0,1,28.25,7.29" fill="#25b774" />
                <path d="M88.06,243.83A118.11,118.11,0,0,1,115.62,255a211,211,0,0,1-28.78-5.6,220.87,220.87,0,0,1-27.42-9.33,114,114,0,0,1,28.65,3.73" fill="#25b774" />
                <path d="M118.71,224.79a238,238,0,0,0-3.1,30.25,117.11,117.11,0,0,0,8.82-28.54,127.44,127.44,0,0,0,1.42-31.19,213.92,213.92,0,0,0-7.15,29.48" fill="#25b774" />
                <path d="M98.86,262a118.24,118.24,0,0,1,27.07,12.34,212.3,212.3,0,0,1-28.53-6.79,220.78,220.78,0,0,1-27-10.45A114.06,114.06,0,0,1,98.86,262" fill="#068e4d" />
                <path d="M130.27,244.29a236.56,236.56,0,0,0-4.34,30.1,116.94,116.94,0,0,0,10-28.16,127.42,127.42,0,0,0,2.71-31.1,214.43,214.43,0,0,0-8.36,29.16" fill="#068e4d" />
                <path d="M108.9,280.69a118.21,118.21,0,0,1,26.54,13.47,213.62,213.62,0,0,1-28.23-8,221.65,221.65,0,0,1-26.55-11.57,113.82,113.82,0,0,1,28.24,6.08" fill="#068e4d" />
                <path d="M141,264.26a236.09,236.09,0,0,0-5.58,29.9,117.46,117.46,0,0,0,11.15-27.73,127.2,127.2,0,0,0,4-31A214.24,214.24,0,0,0,141,264.26" fill="#068e4d" />
                <path d="M92.62,217.67A529.26,529.26,0,0,1,149.48,328" fill="none" stroke="#36e69a" stroke-linecap="round" stroke-linejoin="round" stroke-width="2" />
            </g>

            <g style="opacity: 0;">
                <line x1="72.03" y1="329" x2="295.52" y2="329" fill="none" stroke="#fff" stroke-linecap="round" stroke-miterlimit="10" stroke-width="2" />
            </g>
        </g>
    </g>
</svg>